<?xml version="1.0" standalone="no"?>
<!DOCTYPE svg PUBLIC "-//W3C//DTD SVG 20010904//EN"
 "http://www.w3.org/TR/2001/REC-SVG-20010904/DTD/svg10.dtd">
<svg version="1.0" xmlns="http://www.w3.org/2000/svg"
 width="1920.000000pt" height="1714.000000pt" viewBox="0 0 1920.000000 1714.000000"
 preserveAspectRatio="xMidYMid meet">

<g transform="translate(0.000000,1714.000000) scale(0.100000,-0.100000)"
fill="#000000" stroke="none">
<path d="M6245 17126 c-159 -53 -388 -223 -990 -735 -2220 -1889 -3998 -4365
-4810 -6696 -211 -605 -371 -1274 -425 -1770 -6 -55 -13 -116 -16 -136 -5 -36
-5 -37 42 -53 26 -9 48 -15 50 -13 1 1 95 146 209 322 1021 1579 1922 2719
3244 4109 535 562 633 635 834 624 72 -4 94 -10 178 -50 104 -49 156 -82 349
-222 781 -564 1312 -1015 2650 -2245 859 -791 960 -885 958 -892 -2 -4 -255
-233 -563 -510 -609 -548 -891 -805 -2340 -2134 -1823 -1672 -2725 -2475
-3705 -3296 -567 -475 -1192 -977 -1428 -1146 -239 -172 -292 -215 -364 -301
-179 -211 -152 -444 86 -742 182 -228 797 -942 900 -1046 150 -150 218 -189
331 -189 148 0 207 48 645 524 918 998 2463 2551 4100 4121 426 408 889 849
2954 2810 252 239 462 435 466 435 4 0 214 -196 466 -435 2065 -1961 2528
-2402 2954 -2810 1637 -1570 3182 -3123 4100 -4121 438 -476 497 -524 645
-524 113 0 181 39 331 189 103 104 718 818 900 1046 296 371 270 628 -91 907
-22 17 -106 78 -187 136 -236 169 -861 671 -1428 1146 -980 821 -1882 1624
-3705 3296 -1449 1329 -1731 1586 -2340 2134 -308 277 -561 506 -563 510 -2 7
99 101 958 892 1338 1230 1869 1681 2650 2245 193 140 245 173 349 222 84 40
106 46 178 50 201 11 299 -62 834 -624 321 -338 462 -490 685 -739 969 -1084
1716 -2067 2559 -3370 114 -176 208 -321 209 -322 2 -2 24 4 50 13 47 16 47
17 42 53 -3 20 -10 81 -16 136 -6 55 -25 183 -41 285 -324 1988 -1527 4283
-3318 6330 -557 637 -1234 1305 -1876 1851 -733 624 -944 767 -1100 746 -98
-14 -152 -62 -331 -297 -73 -96 -177 -231 -230 -300 -172 -221 -264 -353 -307
-439 -38 -77 -42 -91 -42 -160 0 -107 24 -150 160 -287 61 -61 378 -345 705
-632 501 -440 603 -534 646 -596 69 -98 95 -170 101 -278 13 -207 -63 -385
-286 -667 -553 -703 -1085 -1235 -2551 -2551 -272 -244 -605 -546 -740 -670
-170 -155 -265 -235 -308 -258 l-62 -33 -62 33 c-43 23 -138 103 -308 258
-135 124 -468 426 -740 670 -1466 1316 -1998 1848 -2551 2551 -223 282 -299
460 -286 667 6 108 32 180 101 278 43 62 145 156 646 596 327 287 645 571 705
632 136 137 160 180 160 287 0 69 -4 83 -42 160 -43 86 -135 218 -307 439 -53
69 -157 204 -230 300 -135 178 -198 245 -256 275 -43 22 -135 28 -185 11z"/>
</g>
</svg>
